<?xml version="1.0" encoding="utf-8"?>
<!-- Generator: Adobe Illustrator 17.1.0, SVG Export Plug-In . SVG Version: 6.00 Build 0)  -->
<!DOCTYPE svg PUBLIC "-//W3C//DTD SVG 1.1//EN" "http://www.w3.org/Graphics/SVG/1.1/DTD/svg11.dtd">
<svg version="1.1" id="Arrow_1_" xmlns="http://www.w3.org/2000/svg" xmlns:xlink="http://www.w3.org/1999/xlink" x="0px" y="0px"
	 width="500px" height="500px" viewBox="0 0 500 500" enable-background="new 0 0 500 500" xml:space="preserve">
  <metadata>
    <?xpacket begin="﻿" id="W5M0MpCehiHzreSzNTczkc9d"?>
    <x:xmpmeta xmlns:x="adobe:ns:meta/" x:xmptk="Adobe XMP Core 5.6-c011 79.156380, 2014/06/19-23:40:37        ">
     <rdf:RDF xmlns:rdf="http://www.w3.org/1999/02/22-rdf-syntax-ns#">
      <rdf:Description rdf:about=""
        xmlns:xmpMM="http://ns.adobe.com/xap/1.0/mm/"
        xmlns:stEvt="http://ns.adobe.com/xap/1.0/sType/ResourceEvent#"
        xmlns:xmp="http://ns.adobe.com/xap/1.0/"
        xmlns:xmpRights="http://ns.adobe.com/xap/1.0/rights/"
        xmlns:dc="http://purl.org/dc/elements/1.1/"
       xmpMM:DocumentID="xmp.did:d64e7c36b8b42cd79ce297313dec21f9"
       xmpMM:OriginalDocumentID="xmp.did:d64e7c36b8b42cd79ce297313dec21f9"
       xmpMM:InstanceID="xmp.iid:d64e7c36b8b42cd79ce297313dec21f9"
       xmp:ModifyDate="2015-04-08T17:44:26+02:00"
       xmp:MetadataDate="2015-04-08T17:44:26+02:00"
       xmpRights:Marked="True"
       xmpRights:WebStatement="http://www.adobe.com/legal/general-terms.html">
       <xmpMM:History>
        <rdf:Seq>
         <rdf:li
          stEvt:action="saved"
          stEvt:instanceID="xmp.iid:d64e7c36b8b42cd79ce297313dec21f9"
          stEvt:when="2015-04-08T17:44:26+02:00"/>
        </rdf:Seq>
       </xmpMM:History>
       <xmpRights:UsageTerms>
        <rdf:Alt>
         <rdf:li xml:lang="x-default">This work is licensed under the Adobe General Terms of Use http://www.adobe.com/legal/general-terms.html.</rdf:li>
        </rdf:Alt>
       </xmpRights:UsageTerms>
       <dc:publisher>
        <rdf:Bag>
         <rdf:li>Adobe Systems Incorporated</rdf:li>
        </rdf:Bag>
       </dc:publisher>
      </rdf:Description>
     </rdf:RDF>
    </x:xmpmeta>
    <?xpacket end="r"?>
  </metadata>
<g>
	<path fill="none" d="M458,421.3c-1-0.4-1.7-0.7-2.7-1.1l-136-64.5c-10.8-5.1-17.7-16-17.9-27.9c-0.1-11.9,6.6-22.9,17.2-28.3
		c10.6-5.3,24.6-7.9,46.5-11.7c5.2-0.9,12.3-2.2,19.2-3.6c-8.9-20.1-18.8-48.1-22.7-79.9c-1-7.9-2.2-16.8-3.6-26.7
		c-2.4-16.8-5.3-38-8.2-63.6c-5.4-48.3-46.5-82.8-99.9-82.8c0,0-0.1,0-0.1,0c0,0-0.1,0-0.1,0c-53.4,0-94.5,34.5-99.9,82.8
		c-2.9,25.6-5.8,46.8-8.2,63.6c-1.4,9.8-2.6,18.8-3.6,26.7c-3.9,31.8-13.8,59.8-22.7,79.9c6.9,1.4,14,2.7,19.2,3.6
		c21.9,3.8,35.9,6.4,46.5,11.7c10.7,5.4,17.4,16.3,17.2,28.3c-0.1,11.9-7.1,22.8-17.9,27.9l-136,64.5c-1,0.5-1.6,0.8-2.7,1.1
		c-4.8,1.8-10.7,5.8-10.7,7.5v40h437.5l0-40C468,427.1,462.8,423.1,458,421.3z"/>
	<path fill="#1F1C1D" d="M468.8,391.9l-136-64.5c18.1-9.1,89-12,94.8-28c0,0-28-43-34.8-98.8c-2.7-21.7-7.2-50.1-11.7-90.1
		C373.7,45.6,319.1,0,250.1,0c0,0-0.1,0-0.1,0c0,0-0.1,0-0.1,0c-69,0-123.6,45.6-131,110.5c-4.5,40-9.1,68.5-11.7,90.1
		c-6.8,55.8-34.8,98.8-34.8,98.8c5.9,16,76.7,18.9,94.8,28l-136,64.5c0,0-31.2,11-31.2,36.9v41.3C0,487.3,14,500,31.2,500h437.5
		c17.3,0,31.2-12.7,31.2-29.9v-41.3C500,402.9,468.8,391.9,468.8,391.9z M31.2,468.8v-40c0-1.7,5.9-5.7,10.7-7.5
		c1-0.4,1.7-0.7,2.7-1.1l136-64.5c10.8-5.1,17.7-16,17.9-27.9c0.1-11.9-6.6-22.9-17.2-28.3c-10.6-5.3-24.6-7.9-46.5-11.7
		c-5.2-0.9-12.3-2.2-19.2-3.6c8.9-20.1,18.8-48.1,22.7-79.9c1-7.9,2.2-16.8,3.6-26.7c2.4-16.8,5.3-38,8.2-63.6
		c5.4-48.3,46.5-82.8,99.9-82.8c0,0,0.1,0,0.1,0c0,0,0.1,0,0.1,0c53.4,0,94.5,34.5,99.9,82.8c2.9,25.6,5.8,46.8,8.2,63.6
		c1.4,9.8,2.6,18.8,3.6,26.7c3.9,31.8,13.8,59.8,22.7,79.9c-6.9,1.4-14,2.7-19.2,3.6c-21.9,3.8-35.9,6.4-46.5,11.7
		c-10.7,5.4-17.4,16.3-17.2,28.3c0.1,11.9,7.1,22.8,17.9,27.9l136,64.5c1,0.5,1.6,0.8,2.7,1.1c4.8,1.8,10,5.8,10.7,7.5l0,40H31.2z"
		/>
</g>
</svg>
