<?xml version="1.0" encoding="utf-8"?>
<!-- Generator: Adobe Illustrator 17.1.0, SVG Export Plug-In . SVG Version: 6.00 Build 0)  -->
<!DOCTYPE svg PUBLIC "-//W3C//DTD SVG 1.1//EN" "http://www.w3.org/Graphics/SVG/1.1/DTD/svg11.dtd">
<svg version="1.1" id="Arrow_1_" xmlns="http://www.w3.org/2000/svg" xmlns:xlink="http://www.w3.org/1999/xlink" x="0px" y="0px"
	 width="500px" height="500px" viewBox="0 0 500 500" enable-background="new 0 0 500 500" xml:space="preserve">
  <metadata>
    <?xpacket begin="﻿" id="W5M0MpCehiHzreSzNTczkc9d"?>
    <x:xmpmeta xmlns:x="adobe:ns:meta/" x:xmptk="Adobe XMP Core 5.6-c011 79.156380, 2014/06/19-23:40:37        ">
     <rdf:RDF xmlns:rdf="http://www.w3.org/1999/02/22-rdf-syntax-ns#">
      <rdf:Description rdf:about=""
        xmlns:xmpMM="http://ns.adobe.com/xap/1.0/mm/"
        xmlns:stEvt="http://ns.adobe.com/xap/1.0/sType/ResourceEvent#"
        xmlns:stRef="http://ns.adobe.com/xap/1.0/sType/ResourceRef#"
        xmlns:xmp="http://ns.adobe.com/xap/1.0/"
        xmlns:xmpRights="http://ns.adobe.com/xap/1.0/rights/"
        xmlns:dc="http://purl.org/dc/elements/1.1/"
       xmpMM:DocumentID="xmp.did:63bdf665f76495d6aab0fc26eee15767"
       xmpMM:OriginalDocumentID="xmp.did:109368015041265f249844401c7e6263"
       xmpMM:InstanceID="xmp.iid:63bdf665f76495d6aab0fc26eee15767"
       xmp:ModifyDate="2015-04-09T16:39:54+02:00"
       xmp:MetadataDate="2015-04-09T16:39:54+02:00"
       xmpRights:Marked="True"
       xmpRights:WebStatement="http://www.adobe.com/legal/general-terms.html">
       <xmpMM:History>
        <rdf:Seq>
         <rdf:li
          stEvt:action="saved"
          stEvt:instanceID="xmp.iid:109368015041265f249844401c7e6263"
          stEvt:when="2015-04-09T16:29:06+02:00"/>
         <rdf:li
          stEvt:action="copied"
          stEvt:instanceID="xmp.iid:63bdf665f76495d6aab0fc26eee15767"
          stEvt:when="2015-04-09T16:39:54+02:00"/>
        </rdf:Seq>
       </xmpMM:History>
       <xmpMM:DerivedFrom
        stRef:documentID="xmp.did:109368015041265f249844401c7e6263"
        stRef:originalDocumentID="xmp.did:109368015041265f249844401c7e6263"
        stRef:instanceID="xmp.iid:109368015041265f249844401c7e6263"
        stRef:lastModifyDate="2015-04-09T16:29:06+02:00"/>
       <xmpRights:UsageTerms>
        <rdf:Alt>
         <rdf:li xml:lang="x-default">This work is licensed under the Adobe General Terms of Use http://www.adobe.com/legal/general-terms.html.</rdf:li>
        </rdf:Alt>
       </xmpRights:UsageTerms>
       <dc:publisher>
        <rdf:Bag>
         <rdf:li>Adobe Systems Incorporated</rdf:li>
        </rdf:Bag>
       </dc:publisher>
      </rdf:Description>
     </rdf:RDF>
    </x:xmpmeta>
    <?xpacket end="r"?>
  </metadata>
<g>
	<path fill="none" d="M455.7,419l-136.1-64.5c-9.9-4.5-16.7-13.9-18-24.7c-1.3-10.8,3.2-21.5,11.7-28.2c33.5-26.4,46-83.9,46-114
		v-78.1c0-33.4-56.3-78.1-109.4-78.1c-52.6,0-109.5,45.4-109.5,78.1v78.1c0,30.5,15.1,87.8,47.6,113.9c8.5,6.8,12.8,17.5,11.5,28.2
		c-1.3,10.7-8.1,20.1-18,24.6L44.3,419c-3.7,1.7-13.1,5.6-13.1,18v31.7l437.5,0l0-30.5C468.7,421.5,456.8,419.5,455.7,419z"/>
	<path fill="#1F1C1D" d="M468.7,390.6l-136.1-64.5c43.3-34.1,58-101,58-138.6v-78.1C390.7,57.6,319,0,250,0
		c-69,0-140.8,57.6-140.8,109.4v78.1c0,34.1,15.6,103.2,59.3,138.3L31.2,390.6c0,0-31.2,13.9-31.2,31.2v46.9C0,486,14,500,31.2,500
		h437.5c17.3,0,31.2-14,31.2-31.3v-46.9C500,403.5,468.7,390.6,468.7,390.6z M31.3,468.7V437c0-12.4,9.3-16.3,13.1-18l137.3-64.8
		c9.8-4.5,16.6-13.8,18-24.6c1.3-10.7-3-21.4-11.5-28.2c-32.5-26.1-47.6-83.4-47.6-113.9v-78.1c0-32.7,56.9-78.1,109.5-78.1
		c53.1,0,109.4,44.7,109.4,78.1v78.1c0,30.1-12.5,87.6-46,114c-8.5,6.7-13,17.4-11.7,28.2c1.3,10.8,8.1,20.2,18,24.7L455.7,419
		c1.1,0.5,13,2.5,13,19.2l0,30.5L31.3,468.7z"/>
</g>
</svg>
